<svg height="512" viewBox="0 0 74 74" width="512" xmlns="http://www.w3.org/2000/svg"><g id="Icons"><path d="m37 72a21.867 21.867 0 0 1 -21.842-21.842c0-11.649 20.122-46.2 20.979-47.663a1.04 1.04 0 0 1 1.727 0c.856 1.465 20.978 36.014 20.978 47.663a21.867 21.867 0 0 1 -21.842 21.842zm0-67c-3.921 6.869-19.842 35.361-19.842 45.153a19.842 19.842 0 0 0 39.684 0c0-9.789-15.921-38.279-19.842-45.153z"/><path d="m37 66a1 1 0 0 1 0-2 13.907 13.907 0 0 0 2.751-.274 1 1 0 1 1 .4 1.96 15.907 15.907 0 0 1 -3.151.314z"/><path d="m43.584 64.458a1 1 0 0 1 -.446-1.9c.363-.18.717-.377 1.062-.587a1 1 0 0 1 1.043 1.707q-.591.361-1.215.671a.99.99 0 0 1 -.444.109z"/><path d="m44.723 63.829a1 1 0 0 1 -.523-1.853 13.766 13.766 0 0 0 6.642-11.818 1 1 0 0 1 2 0 15.752 15.752 0 0 1 -7.6 13.524 1 1 0 0 1 -.519.147z"/></g></svg>