<svg height="512" viewBox="0 0 74 74" width="512" xmlns="http://www.w3.org/2000/svg"><g id="Icons"><path d="m28.4 57.307h-19.807a6.553 6.553 0 0 1 -1.273-12.99 8.475 8.475 0 0 1 14.5-4.28 6.7 6.7 0 0 1 1.508-.172 6.8 6.8 0 0 1 6.738 5.963 5.852 5.852 0 0 1 2.83 1.835l-1.525 1.293a3.879 3.879 0 0 0 -2.4-1.325 1 1 0 0 1 -.854-.987 4.8 4.8 0 0 0 -4.788-4.779 4.727 4.727 0 0 0 -1.524.253 1 1 0 0 1 -1.1-.323 6.47 6.47 0 0 0 -11.495 3.49 1 1 0 0 1 -.93.919 4.555 4.555 0 0 0 .313 9.1h19.807a3.815 3.815 0 0 0 1.083-.155l.568 1.917a5.8 5.8 0 0 1 -1.651.241z"/><path d="m65.483 61.219h-29.676a7.525 7.525 0 1 1 .413-15.04c0-.091 0-.182 0-.272a7.951 7.951 0 0 1 7.932-7.952 7.861 7.861 0 0 1 3.8.971 10.587 10.587 0 0 1 18.283 9.274 6.533 6.533 0 0 1 -.752 13.021zm-29.676-13.051a5.525 5.525 0 0 0 0 11.051h29.676a4.532 4.532 0 0 0 0-9.064 4.24 4.24 0 0 0 -.462.024 1 1 0 0 1 -1.052-1.334 8.579 8.579 0 0 0 -14.989-8.009 1 1 0 0 1 -1.392.224 5.868 5.868 0 0 0 -3.442-1.1 5.953 5.953 0 0 0 -5.8 7.194 1 1 0 0 1 -1.219 1.179 5.49 5.49 0 0 0 -1.32-.165z"/><path d="m66.394 47.963-.958-.177h-1.025a1.149 1.149 0 0 1 .017-.192 26.86 26.86 0 0 0 .453-4.948 27.88 27.88 0 0 0 -55.76 0c0 .75.036 1.539.106 2.343l-1.992.175c-.076-.862-.114-1.709-.114-2.518a29.88 29.88 0 0 1 59.76 0 28.838 28.838 0 0 1 -.487 5.317z"/><path d="m15.493 38.653-1.967-.364a23.879 23.879 0 0 1 46.574-1.689l-1.936.507a21.878 21.878 0 0 0 -42.669 1.549z"/><path d="m21.318 40.176-1.977-.31a17.876 17.876 0 0 1 34.426-3.4l-1.875.694a15.876 15.876 0 0 0 -30.574 3.018z"/><path d="m27.165 41.707-2-.1a11.881 11.881 0 0 1 23.311-2.037l-1.932.521a9.883 9.883 0 0 0 -19.379 1.615z"/></g></svg>