<svg height="512" viewBox="0 0 74 74" width="512" xmlns="http://www.w3.org/2000/svg"><g id="Icons"><path d="m67.626 38.41h-61.252a1 1 0 0 1 -1-1 31.626 31.626 0 1 1 63.252 0 1 1 0 0 1 -1 1zm-60.235-2h59.218a29.626 29.626 0 0 0 -59.219 0z"/><path d="m55.771 38.41h-37.542a1 1 0 0 1 -1-1c0-17.439 8.871-31.626 19.771-31.626s19.771 14.187 19.771 31.626a1 1 0 0 1 -1 1zm-36.532-2h35.522c-.318-15.874-8.161-28.626-17.761-28.626s-17.443 12.752-17.761 28.626z"/><path d="m43.95 38.41h-13.9a1 1 0 0 1 -1-1c0-15.716 2.73-31.626 7.95-31.626s7.95 15.91 7.95 31.626a1 1 0 0 1 -1 1zm-12.9-2h11.896c-.127-17.51-3.565-28.626-5.946-28.626s-5.819 11.116-5.946 28.626z"/><path d="m31.547 72a8.512 8.512 0 0 1 -1.083-.069 8.562 8.562 0 0 1 -7.307-8.6v-.231a2.976 2.976 0 1 1 5.952 0v.394a2.513 2.513 0 0 0 1.932 2.5 2.464 2.464 0 0 0 2.983-2.4v-26.184a1 1 0 0 1 1-1h3.952a1 1 0 0 1 1 1v26.18a8.415 8.415 0 0 1 -8.429 8.41zm-.828-2.053a6.419 6.419 0 0 0 7.257-6.355v-25.182h-1.952v25.18a4.463 4.463 0 0 1 -5.385 4.363 4.518 4.518 0 0 1 -3.531-4.462v-.391a.976.976 0 1 0 -1.952 0v.236a6.56 6.56 0 0 0 5.562 6.613z"/><path d="m38.877 7.843a1 1 0 0 1 -1-1v-1.966a.877.877 0 1 0 -1.754 0v1.966a1 1 0 0 1 -2 0v-1.966a2.877 2.877 0 1 1 5.754 0v1.966a1 1 0 0 1 -1 1z"/></g></svg>