<svg height="512" viewBox="0 0 74 74" width="512" xmlns="http://www.w3.org/2000/svg"><g id="Icons"><path d="m38.075 72c-1.041 0-2.047-.047-3.074-.144-16.668-.869-25.812-14.89-26.192-15.486a35.208 35.208 0 0 1 24.039-54.359 1 1 0 0 1 .752 1.782 28.475 28.475 0 1 0 35.861 44.216 1 1 0 0 1 1.591 1.106 35.337 35.337 0 0 1 -32.977 22.885zm-8.618-67.242a33.413 33.413 0 0 0 -24.571 32.053 33.071 33.071 0 0 0 5.6 18.464c.1.155 9.01 13.78 24.644 14.585h.043c.972.092 1.922.137 2.906.137a33.358 33.358 0 0 0 29.578-18.123 30.48 30.48 0 0 1 -38.2-47.115z"/><path d="m40.583 34.283a1 1 0 0 1 -.95-.689l-2-6.111-6.111-2a1 1 0 0 1 0-1.9l6.111-2 2-6.111a1 1 0 0 1 1.9 0l2 6.111 6.11 2a1 1 0 0 1 0 1.9l-6.11 2-2 6.111a1 1 0 0 1 -.95.689zm-5.533-9.75 3.688 1.206a1 1 0 0 1 .64.64l1.206 3.688 1.207-3.688a1 1 0 0 1 .64-.639l3.688-1.207-3.689-1.206a1 1 0 0 1 -.64-.639l-1.207-3.688-1.206 3.688a1 1 0 0 1 -.64.64z"/><path d="m58.118 35.042a3.375 3.375 0 0 1 -.057-6.75h.056a3.385 3.385 0 0 1 3.383 3.318 3.384 3.384 0 0 1 -3.326 3.431zm0-4.75h-.022a1.373 1.373 0 0 0 -1.345 1.4 1.354 1.354 0 0 0 1.391 1.352 1.375 1.375 0 0 0 -.023-2.75z"/><path d="m49.586 15.7a3.375 3.375 0 1 1 3.383-3.375 3.375 3.375 0 0 1 -3.383 3.375zm0-4.75a1.375 1.375 0 1 0 1.383 1.375 1.373 1.373 0 0 0 -1.383-1.376z"/><path d="m42.951 48.48a3.375 3.375 0 1 1 3.382-3.375 3.375 3.375 0 0 1 -3.382 3.375zm0-4.75a1.375 1.375 0 1 0 1.382 1.375 1.373 1.373 0 0 0 -1.382-1.375z"/></g></svg>