<svg height="512" viewBox="0 0 74 74" width="512" xmlns="http://www.w3.org/2000/svg"><g id="Icons"><path d="m68.449 72h-62.898a2.969 2.969 0 0 1 -2.966-2.966v-57.493a2.969 2.969 0 0 1 2.966-2.966h7.862a1 1 0 1 1 0 2h-7.862a.967.967 0 0 0 -.966.966v57.493a.967.967 0 0 0 .966.966h62.9a.967.967 0 0 0 .966-.966v-57.493a.967.967 0 0 0 -.966-.966h-7.864a1 1 0 1 1 0-2h7.862a2.969 2.969 0 0 1 2.966 2.966v57.493a2.969 2.969 0 0 1 -2.966 2.966z"/><path d="m52.233 10.575h-30.466a1 1 0 1 1 0-2h30.466a1 1 0 1 1 0 2z"/><path d="m20.786 17.15h-6.386a1.985 1.985 0 0 1 -1.983-1.983v-11.184a1.985 1.985 0 0 1 1.983-1.983h6.388a1.985 1.985 0 0 1 1.982 1.983v11.184a1.985 1.985 0 0 1 -1.984 1.983zm-6.386-13.15.017 11.167 6.371-.017-.018-11.15z"/><path d="m59.6 17.15h-6.386a1.985 1.985 0 0 1 -1.983-1.983v-11.184a1.985 1.985 0 0 1 1.983-1.983h6.386a1.985 1.985 0 0 1 1.983 1.983v11.184a1.985 1.985 0 0 1 -1.983 1.983zm-6.386-13.15.017 11.167 6.369-.017-.015-11.15z"/><path d="m70.415 26.745h-66.83a1 1 0 1 1 0-2h66.83a1 1 0 0 1 0 2z"/><path d="m48.384 53.294h-22.768a7.167 7.167 0 0 1 -.973-14.194q-.026-.273-.026-.551a5.233 5.233 0 0 1 5.1-5.346 4.979 4.979 0 0 1 3.565 1.526 7.591 7.591 0 0 1 5.753-2.657 7.976 7.976 0 0 1 7.749 7.153 6.467 6.467 0 0 1 1.6-.2 7.142 7.142 0 0 1 0 14.267zm-22.768-12.266a5.146 5.146 0 0 0 0 10.267h22.768a5.146 5.146 0 0 0 0-10.267 4.5 4.5 0 0 0 -2.083.511 1 1 0 0 1 -1.458-.939c0-.1.008-.2.008-.3a6.039 6.039 0 0 0 -5.815-6.229 5.7 5.7 0 0 0 -4.89 2.861.965.965 0 0 1 -.884.485 1 1 0 0 1 -.857-.531 3.072 3.072 0 0 0 -2.688-1.686 3.234 3.234 0 0 0 -3.1 3.346 3.55 3.55 0 0 0 .19 1.157 1 1 0 0 1 -.142.921.986.986 0 0 1 -.84.4z"/><path d="m47.929 59.271a1 1 0 0 1 -.707-1.707l1.569-1.564a1 1 0 0 1 1.414 1.414l-1.569 1.569a1 1 0 0 1 -.707.288z"/><path d="m40.205 59.271a1 1 0 0 1 -.707-1.707l1.568-1.564a1 1 0 0 1 1.414 1.41l-1.568 1.569a1 1 0 0 1 -.707.292z"/><path d="m32.481 59.271a1 1 0 0 1 -.707-1.707l1.569-1.564a1 1 0 0 1 1.414 1.414l-1.568 1.569a1 1 0 0 1 -.708.288z"/><path d="m24.757 59.271a1 1 0 0 1 -.707-1.707l1.569-1.564a1 1 0 0 1 1.414 1.414l-1.569 1.569a1 1 0 0 1 -.707.288z"/><path d="m50.507 64.6a1 1 0 0 1 -.707-1.707l1.568-1.568a1 1 0 0 1 1.414 1.414l-1.568 1.568a1 1 0 0 1 -.707.293z"/><path d="m42.783 64.6a1 1 0 0 1 -.707-1.707l1.568-1.568a1 1 0 0 1 1.414 1.414l-1.568 1.568a1 1 0 0 1 -.707.293z"/><path d="m35.059 64.6a1 1 0 0 1 -.707-1.708l1.569-1.568a1 1 0 0 1 1.414 1.415l-1.569 1.568a1 1 0 0 1 -.707.293z"/><path d="m27.335 64.6a1 1 0 0 1 -.707-1.707l1.572-1.569a1 1 0 0 1 1.414 1.414l-1.568 1.568a1 1 0 0 1 -.711.294z"/></g></svg>