<svg height="512" viewBox="0 0 74 74" width="512" xmlns="http://www.w3.org/2000/svg"><g id="Icons"><path d="m71 41.717h-68a1 1 0 0 1 0-2h68a1 1 0 0 1 0 2z"/><path d="m56.592 41.721a1.014 1.014 0 0 1 -.251-.032 1 1 0 0 1 -.718-1.219 19.5 19.5 0 0 0 .621-4.877 19.244 19.244 0 0 0 -38.487 0 19.5 19.5 0 0 0 .621 4.877 1 1 0 0 1 -1.937.5 21.5 21.5 0 0 1 -.684-5.378 21.244 21.244 0 0 1 42.487 0 21.5 21.5 0 0 1 -.684 5.378 1 1 0 0 1 -.968.751z"/><path d="m37 11.521a1 1 0 0 1 -1-1v-6.167a1 1 0 0 1 2 0v6.167a1 1 0 0 1 -1 1z"/><path d="m30.513 12.406a1 1 0 0 1 -.965-.742l-.878-3.276a1 1 0 1 1 1.93-.518l.878 3.276a1 1 0 0 1 -.966 1.259z"/><path d="m24.479 14.938a1 1 0 0 1 -.867-.5l-1.7-2.938a1 1 0 0 1 1.732-1l1.7 2.938a1 1 0 0 1 -.865 1.5z"/><path d="m15.341 24.159a1 1 0 0 1 -.5-.134l-2.938-1.7a1 1 0 0 1 1-1.732l2.938 1.7a1 1 0 0 1 -.5 1.866z"/><path d="m12.865 30.219a.994.994 0 0 1 -.259-.035l-3.277-.878a1 1 0 1 1 .518-1.932l3.277.878a1 1 0 0 1 -.258 1.966z"/><path d="m61.366 30.219a1 1 0 0 1 -.258-1.966l3.277-.878a1 1 0 0 1 .518 1.932l-3.277.878a.994.994 0 0 1 -.26.034z"/><path d="m58.891 24.159a1 1 0 0 1 -.5-1.866l2.938-1.7a1 1 0 1 1 1 1.732l-2.937 1.7a1 1 0 0 1 -.501.134z"/><path d="m49.752 14.938a1 1 0 0 1 -.865-1.5l1.7-2.938a1 1 0 1 1 1.732 1l-1.7 2.938a1 1 0 0 1 -.867.5z"/><path d="m43.718 12.406a1 1 0 0 1 -.966-1.259l.878-3.276a1 1 0 0 1 1.932.518l-.878 3.276a1 1 0 0 1 -.966.741z"/><path d="m11.924 36.6h-6.167a1 1 0 0 1 0-2h6.167a1 1 0 1 1 0 2z"/><path d="m68.243 36.6h-6.167a1 1 0 0 1 0-2h6.167a1 1 0 0 1 0 2z"/><path d="m19.269 18.865a1 1 0 0 1 -.707-.293l-4.632-4.632a1 1 0 0 1 1.414-1.414l4.632 4.632a1 1 0 0 1 -.707 1.707z"/><path d="m54.731 18.865a1 1 0 0 1 -.707-1.707l4.632-4.632a1 1 0 0 1 1.414 1.414l-4.632 4.632a1 1 0 0 1 -.707.293z"/><path d="m37 70.646a1 1 0 0 1 -.811-.415l-7.78-10.78a1 1 0 0 1 .811-1.585h3.19v-11.379a1 1 0 0 1 1-1h7.18a1 1 0 0 1 1 1v11.38h3.19a1 1 0 0 1 .811 1.585l-7.78 10.78a1 1 0 0 1 -.811.414zm-5.825-10.78 5.825 8.072 5.825-8.071h-2.235a1 1 0 0 1 -1-1v-11.38h-5.18v11.38a1 1 0 0 1 -1 1z"/></g></svg>