<svg height="512" viewBox="0 0 74 74" width="512" xmlns="http://www.w3.org/2000/svg"><g id="Icons"><path d="m55.078 44.835a1 1 0 0 1 0-2c7.278 0 13.2-5.531 13.2-12.33a12.192 12.192 0 0 0 -7.078-10.905 1 1 0 0 1 .878-1.8 14.176 14.176 0 0 1 8.2 12.7c-.001 7.907-6.819 14.335-15.2 14.335z"/><path d="m28.958 44.841h-11.291c-7.688 0-13.944-5.908-13.944-13.17a13.141 13.141 0 0 1 8.541-12.125 14.536 14.536 0 0 1 7.759-.64l.94.163a1 1 0 1 1 -.343 1.971l-.936-.163a12.558 12.558 0 0 0 -6.684.529 11.153 11.153 0 0 0 -7.277 10.265c0 6.159 5.358 11.17 11.944 11.17h11.291a1 1 0 0 1 0 2z"/><path d="m55.08 44.84h-15.7a1 1 0 0 1 0-2h15.7a1 1 0 1 1 0 2z"/><path d="m61.64 19.7h-.08a.993.993 0 0 1 -.917-1.069v-.021c.019-.23.038-.461.038-.709a8.01 8.01 0 0 0 -16 0 1 1 0 1 1 -2 0 10.008 10.008 0 0 1 20 0c0 .3-.021.587-.044.87a1.008 1.008 0 0 1 -.997.929z"/><path d="m15.2 20.733a1 1 0 0 1 -.986-.838 13.144 13.144 0 0 1 -.161-2.135c.002-8.69 8.247-15.76 18.386-15.76 6.724 0 12.908 3.147 16.14 8.215a1 1 0 1 1 -1.687 1.075c-2.867-4.497-8.405-7.29-14.453-7.29-9.039 0-16.384 6.172-16.384 13.76a11.159 11.159 0 0 0 .134 1.812 1 1 0 0 1 -.825 1.148 1.028 1.028 0 0 1 -.164.013z"/><path d="m27.453 72a1 1 0 0 1 -.978-1.208l3.225-15.154h-4.225a1 1 0 0 1 -.946-1.323l6.19-18.159a1 1 0 0 1 .946-.677h11.3a1 1 0 0 1 .9 1.438l-5.429 11.152h4.527a1 1 0 0 1 .816 1.578l-15.509 21.931a1 1 0 0 1 -.817.422zm-.58-18.362h4.061a1 1 0 0 1 .978 1.208l-2.47 11.61 11.589-16.387h-4.194a1 1 0 0 1 -.9-1.437l5.427-11.152h-8.983z"/></g></svg>