<?xml version="1.0"?>
<svg xmlns="http://www.w3.org/2000/svg" viewBox="0 0 74 74" width="512" height="512"><g id="Icons"><path d="M56.778,68.436a1,1,0,0,1-.588-.191L37,54.3,17.81,68.245a1,1,0,0,1-1.539-1.118L23.6,44.564,4.412,30.626A1,1,0,0,1,5,28.817H28.718L36.049,6.255a1,1,0,0,1,1.9,0l7.331,22.562H69a1,1,0,0,1,.588,1.809L50.4,44.564l7.332,22.562a1,1,0,0,1-.951,1.309ZM37,52.06a1,1,0,0,1,.588.191L54.876,64.816,48.271,44.492a1,1,0,0,1,.363-1.118L65.922,30.817H44.556a1,1,0,0,1-.951-.691L37,9.8,30.4,30.126a1,1,0,0,1-.951.691H8.078L25.366,43.374a1,1,0,0,1,.363,1.118L19.124,64.816,36.412,52.25A1,1,0,0,1,37,52.06Z"/></g></svg>
