<?xml version="1.0"?>
<svg xmlns="http://www.w3.org/2000/svg" viewBox="0 0 74 74" width="512" height="512"><g id="Icons"><path d="M56.642,58.092A9.248,9.248,0,0,1,47.4,48.854a1,1,0,0,1,1-1h4.459a1,1,0,0,1,1,1,2.773,2.773,0,1,0,2.779-2.768H25.407a1,1,0,0,1-1-1V40.627a1,1,0,0,1,1-1H56.642a9.232,9.232,0,0,1,0,18.465Zm-7.169-8.238a7.232,7.232,0,1,0,7.169-8.227H26.407v2.459H56.642a4.773,4.773,0,0,1,4.768,4.768,4.776,4.776,0,0,1-9.446,1Z"/><path d="M18.966,46.087H13.42a1,1,0,0,1-1-1V40.628a1,1,0,0,1,1-1h5.545a1,1,0,0,1,1,1v4.459A1,1,0,0,1,18.966,46.087Zm-4.545-2h3.545V41.628H14.42Z"/><path d="M36.543,70.086a9.237,9.237,0,0,1-9.227-9.227,1,1,0,0,1,1-1h4.459a1,1,0,0,1,1,1,2.773,2.773,0,0,0,5.547,0,2.776,2.776,0,0,0-2.779-2.768H5.843a1,1,0,0,1-1-1V52.633a1,1,0,0,1,1-1h30.7a9.227,9.227,0,1,1,0,18.454Zm-7.158-8.227a7.232,7.232,0,1,0,7.158-8.227H6.843v2.459h29.7a4.778,4.778,0,0,1,4.779,4.768,4.777,4.777,0,0,1-9.446,1Z"/><path d="M41,22.375H9.688a1,1,0,0,1-1-1V16.916a1,1,0,0,1,1-1H41a2.775,2.775,0,0,0,2.771-2.772,2.771,2.771,0,1,0-5.543,0,1,1,0,0,1-1,1H32.764a1,1,0,0,1-1-1A9.23,9.23,0,1,1,41,22.375Zm-30.307-2H41a7.231,7.231,0,1,0-7.162-8.231h2.491a4.774,4.774,0,0,1,9.442,1A4.777,4.777,0,0,1,41,17.916H10.688Z"/><path d="M9.238,34.721H3a1,1,0,0,1-1-1V29.262a1,1,0,0,1,1-1H9.238a1,1,0,0,1,1,1v4.459A1,1,0,0,1,9.238,34.721ZM4,32.721H8.238V30.262H4Z"/><path d="M71,34.721H15.391a1,1,0,0,1-1-1V29.262a1,1,0,0,1,1-1H71a1,1,0,0,1,1,1v4.459A1,1,0,0,1,71,34.721Zm-54.609-2H70V30.262H16.391Z"/></g></svg>
