<svg height="512" viewBox="0 0 74 74" width="512" xmlns="http://www.w3.org/2000/svg"><g id="Icons"><path d="m71 55h-26.687a1 1 0 0 1 -1-1 6.313 6.313 0 0 0 -12.625 0 1 1 0 0 1 -1 1h-26.688a1 1 0 0 1 -1-1 35 35 0 0 1 70 0 1 1 0 0 1 -1 1zm-25.747-2h24.732a33 33 0 0 0 -65.97 0h24.732a8.315 8.315 0 0 1 16.506 0z"/><path d="m64.308 55a1 1 0 0 1 -1-1 26.308 26.308 0 1 0 -52.615 0 1 1 0 1 1 -2 0 28.308 28.308 0 1 1 56.615 0 1 1 0 0 1 -1 1z"/><path d="m57.726 55a1 1 0 0 1 -1-1 19.726 19.726 0 1 0 -39.451 0 1 1 0 1 1 -2 0 21.726 21.726 0 1 1 43.451 0 1 1 0 0 1 -1 1z"/><path d="m50.944 55a1 1 0 0 1 -1-1 12.944 12.944 0 0 0 -25.889 0 1 1 0 0 1 -2 0 14.944 14.944 0 0 1 29.889 0 1 1 0 0 1 -1 1z"/></g></svg>