<svg height="512" viewBox="0 0 74 74" width="512" xmlns="http://www.w3.org/2000/svg"><g id="Icons"><path d="m37 72a35 35 0 1 1 35-35 35.04 35.04 0 0 1 -35 35zm0-68a33 33 0 1 0 33 33 33.037 33.037 0 0 0 -33-33z"/><path d="m37 65.063a28.063 28.063 0 1 1 28.063-28.063 28.094 28.094 0 0 1 -28.063 28.063zm0-54.125a26.063 26.063 0 1 0 26.063 26.062 26.092 26.092 0 0 0 -26.063-26.062z"/><path d="m27.923 31.524a4.259 4.259 0 1 1 4.254-4.265 4.269 4.269 0 0 1 -4.254 4.265zm0-6.518a2.259 2.259 0 1 0 2.254 2.253 2.261 2.261 0 0 0 -2.254-2.253z"/><path d="m40.34 52.38c-5.6 0-10.16-5.275-10.16-11.76s4.558-11.74 10.16-11.74a9.246 9.246 0 0 1 6.339 2.565 1 1 0 0 1 -1.357 1.47 7.275 7.275 0 0 0 -4.982-2.035c-4.5 0-8.16 4.37-8.16 9.74s3.66 9.76 8.16 9.76a7.277 7.277 0 0 0 4.981-2.035 1 1 0 0 1 1.357 1.47 9.246 9.246 0 0 1 -6.338 2.565z"/></g></svg>