<svg height="512" viewBox="0 0 74 74" width="512" xmlns="http://www.w3.org/2000/svg"><g id="Icons"><path d="m28.348 54.975a1 1 0 0 1 -.995-1.1l1.147-11.626-10.7-4.678a1 1 0 0 1 .186-1.893l11.409-2.506 1.144-11.628a1 1 0 0 1 1.858-.408l5.903 10.079 11.409-2.505a1 1 0 0 1 .962 1.641l-7.759 8.733 5.911 10.079a1 1 0 0 1 -1.264 1.422l-10.705-4.685-7.754 8.739a1 1 0 0 1 -.752.336zm-6.934-18 8.549 3.736a1 1 0 0 1 .595 1.014l-.913 9.287 6.2-6.979a1 1 0 0 1 1.148-.252l8.55 3.74-4.721-8.05a1 1 0 0 1 .115-1.17l6.2-6.975-9.112 2a1 1 0 0 1 -1.077-.471l-4.728-8.055-.914 9.289a1 1 0 0 1 -.781.879z"/><path d="m58.274 25.379a1 1 0 0 1 -.834-.449l-3.773-5.715-6.6 1.825a1 1 0 0 1 -1.048-1.587l4.268-5.353-3.775-5.716a1 1 0 0 1 1.188-1.484l6.411 2.4 4.27-5.356a1 1 0 0 1 1.781.668l-.306 6.842 6.411 2.4a1 1 0 0 1 -.085 1.9l-6.6 1.822-.306 6.841a1 1 0 0 1 -1 .956zm-4.174-8.322a1 1 0 0 1 .834.449l2.477 3.752.2-4.491a1 1 0 0 1 .733-.919l4.333-1.2-4.209-1.579a1 1 0 0 1 -.648-.981l.2-4.494-2.8 3.518a1 1 0 0 1 -1.133.313l-4.209-1.575 2.478 3.75a1 1 0 0 1 -.053 1.175l-2.8 3.516 4.334-1.2a1 1 0 0 1 .263-.034z"/><path d="m14.475 70.432a1 1 0 0 1 -.834-.449l-3.773-5.716-6.6 1.825a1 1 0 0 1 -1.05-1.592l4.269-5.355-3.774-5.709a1 1 0 0 1 1.187-1.488l6.411 2.4 4.268-5.348a1 1 0 0 1 1.781.668l-.306 6.842 6.411 2.4a1 1 0 0 1 -.085 1.9l-6.6 1.822-.306 6.842a1 1 0 0 1 -1 .956zm-4.175-8.323a1 1 0 0 1 .834.449l2.477 3.753.2-4.492a1 1 0 0 1 .733-.919l4.333-1.2-4.209-1.579a1 1 0 0 1 -.648-.981l.2-4.493-2.8 3.517a1 1 0 0 1 -1.133.313l-4.208-1.577 2.478 3.75a1 1 0 0 1 -.057 1.178l-2.8 3.515 4.334-1.2a1 1 0 0 1 .266-.034z"/><path d="m14.859 27.164a1 1 0 0 1 -.815-.42l-3.971-5.58-6.533 2.056a1 1 0 0 1 -1.1-1.55l4.079-5.5-3.976-5.579a1 1 0 0 1 1.132-1.528l6.492 2.178 4.079-5.5a1 1 0 0 1 1.8.605l-.065 6.848 6.491 2.178a1 1 0 0 1 -.018 1.9l-6.532 2.053-.065 6.848a1 1 0 0 1 -1 .99zm-4.393-8.172a1 1 0 0 1 .815.42l2.607 3.664.043-4.5a1 1 0 0 1 .7-.944l4.289-1.348-4.262-1.43a1 1 0 0 1 -.682-.958l.043-4.5-2.679 3.613a1 1 0 0 1 -1.121.353l-4.262-1.43 2.608 3.668a1 1 0 0 1 -.011 1.176l-2.678 3.612 4.29-1.35a1.012 1.012 0 0 1 .3-.046z"/><path d="m62.131 66.527a1 1 0 0 1 -.917-.6l-2.629-6.047-6.564.635a1 1 0 0 1 -.759-1.744l4.938-4.371-2.631-6.045a1 1 0 0 1 1.424-1.261l5.681 3.345 4.938-4.371a1 1 0 0 1 1.639.965l-1.426 6.438 5.681 3.345a1 1 0 0 1 -.412 1.857l-6.562.632-1.425 6.438a1 1 0 0 1 -.88.779q-.047.005-.096.005zm-2.918-8.714a1 1 0 0 1 .917.6l1.692 3.891.917-4.142a1 1 0 0 1 .881-.779l4.221-.407-3.654-2.151a1 1 0 0 1 -.469-1.078l.917-4.143-3.178 2.813a1 1 0 0 1 -1.17.113l-3.654-2.151 1.692 3.888a1 1 0 0 1 -.254 1.148l-3.176 2.811 4.223-.408a.916.916 0 0 1 .095-.005z"/></g></svg>