<svg height="512" viewBox="0 0 74 74" width="512" xmlns="http://www.w3.org/2000/svg"><g id="Icons"><path d="m49.877 49.756c-.7 0-1.367-.031-2.052-.1-11.157-.586-17.275-9.967-17.531-10.366a23.436 23.436 0 0 1 -3.958-13.078 23.672 23.672 0 0 1 20.044-23.277 1 1 0 0 1 .756 1.782 18.433 18.433 0 1 0 23.211 28.623 1 1 0 0 1 1.59 1.106 23.639 23.639 0 0 1 -22.06 15.31zm-6.816-43.973a21.7 21.7 0 0 0 -14.725 20.433 21.459 21.459 0 0 0 3.632 11.984c.068.106 5.858 8.944 15.981 9.465h.044c.628.06 1.245.089 1.883.089a21.655 21.655 0 0 0 18.587-10.646 20.439 20.439 0 0 1 -25.4-31.326z"/><path d="m36.828 65.717a4.607 4.607 0 0 1 -4.6-4.6 1 1 0 0 1 2 0 2.6 2.6 0 1 0 2.6-2.6 1 1 0 0 1 0-2 4.6 4.6 0 1 1 0 9.2z"/><path d="m10.2 58.513h-1.985a1 1 0 0 1 0-2h1.985a1 1 0 0 1 0 2z"/><path d="m36.828 58.513h-22.089a1 1 0 1 1 0-2h22.089a1 1 0 0 1 0 2z"/><path d="m24.771 71.076a4.607 4.607 0 0 1 -4.6-4.6 1 1 0 0 1 2 0 2.6 2.6 0 1 0 2.6-2.6 1 1 0 1 1 0-2 4.6 4.6 0 1 1 0 9.2z"/><path d="m24.771 63.873h-21.771a1 1 0 0 1 0-2h21.771a1 1 0 0 1 0 2z"/><path d="m28.315 53.22h-22.134a1 1 0 0 1 0-2h22.134a2.6 2.6 0 1 0 -2.6-2.6 1 1 0 0 1 -2 0 4.6 4.6 0 1 1 4.6 4.6z"/></g></svg>