<svg height="512" viewBox="0 0 74 74" width="512" xmlns="http://www.w3.org/2000/svg"><g id="Icons"><path d="m18.7 45.046a1 1 0 0 1 -.594-.2c-3.324-2.456-6.59-2.464-9.984-.029a1 1 0 0 1 -1.58-.817 29.819 29.819 0 0 1 28.1-29.673c.46-.028.9-.043 1.377-.044a1 1 0 0 1 .035 2c-4.214.164-8.21 2.975-11.252 7.917-3.261 5.283-5.071 12.331-5.1 19.846a1 1 0 0 1 -1 1zm-5.578-4.062a9.523 9.523 0 0 1 4.617 1.258 39.773 39.773 0 0 1 5.361-19.088 22.346 22.346 0 0 1 4.66-5.514 27.838 27.838 0 0 0 -19.152 24.531 9.643 9.643 0 0 1 4.517-1.188z"/><path d="m65.193 45.2a1 1 0 0 1 -.565-.175c-3.2-2.19-6.493-2.194-10.075-.009a1 1 0 0 1 -1.521-.857c.025-7.516-1.737-14.575-4.962-19.878-3.008-4.963-6.985-7.8-11.2-7.994a1 1 0 0 1 .045-2c.464 0 .917.023 1.381.054a29.816 29.816 0 0 1 27.897 29.865 1 1 0 0 1 -1 1zm-20.04-27.5a22.344 22.344 0 0 1 4.626 5.547 39.823 39.823 0 0 1 5.23 19.253 10.113 10.113 0 0 1 9.135-.071 27.836 27.836 0 0 0 -18.991-24.729z"/><path d="m29.827 45.083a1 1 0 0 1 -.57-.178c-3.144-2.181-6.426-2.181-10.037 0a1 1 0 0 1 -1.517-.86c.026-7.878 1.942-15.3 5.394-20.889 3.4-5.526 7.975-8.675 12.877-8.865.15-.009.322-.008.491-.009a1 1 0 0 1 0 2h-.005c-.71 0-2.283 1.61-3.679 7.651a96.3 96.3 0 0 0 -1.953 20.156 1 1 0 0 1 -1 1zm3.338-28.26c-3.135 1.049-6.031 3.587-8.365 7.38a37.769 37.769 0 0 0 -5.061 18.16 10.072 10.072 0 0 1 9.105-.025 95.347 95.347 0 0 1 1.987-18.856 25.071 25.071 0 0 1 2.334-6.658z"/><path d="m54.032 45.165a1 1 0 0 1 -.527-.15c-3.54-2.195-6.825-2.213-10.04-.057a1 1 0 0 1 -1.557-.834 96.226 96.226 0 0 0 -1.818-20.171c-1.355-6.052-2.918-7.671-3.629-7.673a1 1 0 0 1 0-2c.171 0 .342 0 .513.013 4.882.222 9.434 3.4 12.8 8.953 3.413 5.613 5.278 13.044 5.252 20.923a1 1 0 0 1 -1 1zm-5.717-3.816a10.955 10.955 0 0 1 4.692 1.119 37.76 37.76 0 0 0 -4.937-18.185c-2.312-3.813-5.194-6.373-8.317-7.44a25.077 25.077 0 0 1 2.29 6.676 95.336 95.336 0 0 1 1.857 18.881 10.006 10.006 0 0 1 4.415-1.051z"/><path d="m42.908 45.127a1 1 0 0 1 -.486-.127 13.285 13.285 0 0 0 -4.344-1.549 10.812 10.812 0 0 0 -3.415-.012 13.278 13.278 0 0 0 -4.356 1.52 1 1 0 0 1 -1.48-.88 98.272 98.272 0 0 1 2-20.6c1.411-6.107 3.3-9.2 5.627-9.2h.009c2.328.007 4.2 3.116 5.574 9.239a98.223 98.223 0 0 1 1.866 20.612 1 1 0 0 1 -1 1zm-6.574-3.817a12.79 12.79 0 0 1 2.063.167 14.593 14.593 0 0 1 3.503 1.04 93.443 93.443 0 0 0 -1.81-18.564c-1.355-6.052-2.918-7.671-3.629-7.673-.711 0-2.284 1.61-3.68 7.651a93.5 93.5 0 0 0 -1.938 18.548 14.594 14.594 0 0 1 3.516-1.015 12.835 12.835 0 0 1 1.975-.153z"/><path d="m42.937 72a9.641 9.641 0 0 1 -9.659-9.646l.039-19.716a1.014 1.014 0 0 1 1-1 1 1 0 0 1 1 1l-.039 19.715a7.646 7.646 0 0 0 8.635 7.581 7.808 7.808 0 0 0 6.628-7.864v-.27a1.3 1.3 0 0 0 -.38-.925 1.278 1.278 0 0 0 -.913-.383 1.281 1.281 0 0 0 -.922.381 1.316 1.316 0 0 0 -.384.923v.455a5.089 5.089 0 0 1 -3.987 5.027 5.029 5.029 0 0 1 -6.062-4.925l.039-19.716a1 1 0 0 1 1-1 1 1 0 0 1 1 1l-.042 19.725a3.029 3.029 0 0 0 3.662 2.962 3.086 3.086 0 0 0 2.387-3.071v-.453a3.327 3.327 0 0 1 .972-2.336 3.283 3.283 0 0 1 2.334-.965 3.3 3.3 0 0 1 3.291 3.311v.269a9.6 9.6 0 0 1 -9.599 9.921z"/><path d="m38.222 16.354a1 1 0 0 1 -1-1v-1.941a.854.854 0 1 0 -1.708 0v1.941a1 1 0 1 1 -2 0v-1.941a2.854 2.854 0 1 1 5.708 0v1.941a1 1 0 0 1 -1 1z"/><path d="m59.718 6.387a1 1 0 0 1 -.732-1.682l2.222-2.387a1 1 0 0 1 1.464 1.363l-2.222 2.387a1 1 0 0 1 -.732.319z"/><path d="m47.858 6.387a1 1 0 0 1 -.732-1.682l2.222-2.387a1 1 0 0 1 1.464 1.363l-2.222 2.387a1 1 0 0 1 -.732.319z"/><path d="m36 6.387a1 1 0 0 1 -.732-1.682l2.222-2.387a1 1 0 0 1 1.464 1.363l-2.224 2.387a1 1 0 0 1 -.73.319z"/><path d="m24.139 6.387a1 1 0 0 1 -.732-1.682l2.222-2.387a1 1 0 0 1 1.464 1.363l-2.222 2.387a1 1 0 0 1 -.732.319z"/><path d="m12.28 6.387a1 1 0 0 1 -.732-1.682l2.222-2.387a1 1 0 0 1 1.464 1.363l-2.222 2.387a1 1 0 0 1 -.732.319z"/><path d="m64.236 13.752a1 1 0 0 1 -.732-1.682l2.222-2.387a1 1 0 0 1 1.464 1.363l-2.222 2.387a1 1 0 0 1 -.732.319z"/><path d="m52.376 13.752a1 1 0 0 1 -.732-1.682l2.222-2.387a1 1 0 0 1 1.464 1.363l-2.222 2.387a1 1 0 0 1 -.732.319z"/><path d="m41.5 12.765a1 1 0 0 1 -.75-1.662l1.234-1.4a1 1 0 1 1 1.5 1.323l-1.234 1.4a1 1 0 0 1 -.75.339z"/><path d="m28.657 13.752a1 1 0 0 1 -.732-1.682l2.222-2.387a1 1 0 1 1 1.464 1.363l-2.222 2.387a1 1 0 0 1 -.732.319z"/><path d="m16.8 13.752a1 1 0 0 1 -.732-1.682l2.222-2.387a1 1 0 1 1 1.464 1.363l-2.222 2.387a1 1 0 0 1 -.732.319z"/><path d="m57.776 20.131a1 1 0 0 1 -.75-1.662l1.234-1.4a1 1 0 1 1 1.5 1.323l-1.234 1.4a1 1 0 0 1 -.75.339z"/><path d="m9.351 21.118a1 1 0 0 1 -.732-1.682l2.222-2.387a1 1 0 1 1 1.459 1.364l-2.217 2.387a1 1 0 0 1 -.732.318z"/></g></svg>