<svg height="512" viewBox="0 0 74 74" width="512" xmlns="http://www.w3.org/2000/svg"><g id="Icons"><path d="m36.982 66.938a28.911 28.911 0 0 1 -27.272-38.468 1 1 0 1 1 1.887.663 26.893 26.893 0 0 0 41.994 30.054 1 1 0 0 1 1.238 1.571 28.569 28.569 0 0 1 -17.847 6.18z"/><path d="m64.159 45.313a1.018 1.018 0 0 1 -.231-.027 1 1 0 0 1 -.742-1.2 26.227 26.227 0 0 0 .693-6.042 26.922 26.922 0 0 0 -34.753-25.736 1 1 0 1 1 -.582-1.913 28.921 28.921 0 0 1 37.335 27.646 28.218 28.218 0 0 1 -.748 6.5 1 1 0 0 1 -.972.772z"/><path d="m32.389 29.8h-22.922a7.423 7.423 0 0 1 -1.335-14.734 9.649 9.649 0 0 1 16.583-4.916 7.7 7.7 0 0 1 9.453 6.65 6.615 6.615 0 0 1 -1.779 13zm-14.754-20.737a7.638 7.638 0 0 0 -7.608 6.978 1 1 0 0 1 -.932.92 5.424 5.424 0 0 0 .372 10.839h22.922a4.616 4.616 0 0 0 .681-9.187 1 1 0 0 1 -.856-.987 5.71 5.71 0 0 0 -5.7-5.686 5.64 5.64 0 0 0 -1.817.3 1 1 0 0 1 -1.1-.322 7.592 7.592 0 0 0 -5.962-2.855z"/><path d="m64.917 60.975h-21.559a6.281 6.281 0 0 1 -1.728-12.33 7.3 7.3 0 0 1 8.925-6.276 9.135 9.135 0 0 1 15.669 4.638 7.041 7.041 0 0 1 -1.308 13.967zm-16.033-16.8a5.311 5.311 0 0 0 -5.3 5.289 1 1 0 0 1 -.856.987 4.283 4.283 0 0 0 .632 8.523h21.557a5.042 5.042 0 0 0 .347-10.074 1 1 0 0 1 -.932-.92 7.129 7.129 0 0 0 -12.656-3.848 1 1 0 0 1 -1.1.322 5.256 5.256 0 0 0 -1.692-.278z"/><path d="m49.082 30.215a4.178 4.178 0 1 1 4.179-4.178 4.184 4.184 0 0 1 -4.179 4.178zm0-6.357a2.178 2.178 0 1 0 2.179 2.179 2.181 2.181 0 0 0 -2.179-2.179z"/><path d="m20.521 42.219a4.178 4.178 0 1 1 4.179-4.178 4.183 4.183 0 0 1 -4.179 4.178zm0-6.357a2.178 2.178 0 1 0 2.179 2.179 2.18 2.18 0 0 0 -2.179-2.179z"/><path d="m28.057 55.126a3.657 3.657 0 1 1 3.657-3.657 3.661 3.661 0 0 1 -3.657 3.657zm0-5.313a1.657 1.657 0 1 0 1.657 1.657 1.658 1.658 0 0 0 -1.657-1.657z"/></g></svg>